<svg xmlns="http://www.w3.org/2000/svg" enable-background="new 0 0 128 128" viewBox="0 0 128 128" id="card-payment"><path fill="#2d3e50" d="M118.3,39.5H67.7c-0.5,19.8-16.9,35.8-36.8,35.8C18.7,75.4,8,69.5,1.3,60.4v50.3c0,4.6,3.8,8.4,8.4,8.4h108.7
		c4.6,0,8.4-3.8,8.4-8.4V47.9C126.7,43.3,123,39.5,118.3,39.5z M80.2,108.8c-8.2,0-14.8-6.6-14.8-14.8c0-8.2,6.6-14.8,14.8-14.8
		c2.9,0,5.6,0.8,7.9,2.3c-3,3.3-4.9,7.7-4.9,12.5c0,4.8,1.8,9.2,4.9,12.5C85.8,107.9,83.1,108.8,80.2,108.8z M101.7,108.8
		c-8.2,0-14.8-6.6-14.8-14.8c0-8.2,6.6-14.8,14.8-14.8c8.2,0,14.8,6.6,14.8,14.8C116.4,102.2,109.8,108.8,101.7,108.8z"></path><path fill="#1d75b9" d="M30.9,8.9C14.5,8.9,1.3,22.2,1.3,38.5c0,16.3,13.3,29.6,29.6,29.6c16.3,0,29.6-13.3,29.6-29.6
				C60.5,22.2,47.2,8.9,30.9,8.9z M30.9,60.7c-12.3,0-22.2-10-22.2-22.2s10-22.2,22.2-22.2s22.2,10,22.2,22.2S43.1,60.7,30.9,60.7z"></path><path fill="#1d75b9" d="M29,48.9c-1.6-0.1-2.8-0.4-3.8-0.7c-1-0.4-1.7-0.7-2.2-0.9l1.4-3.7c0.8,0.4,1.7,0.7,2.7,1
			c1,0.3,2.1,0.5,3.3,0.5c1.3,0,2.2-0.2,2.7-0.5s0.7-0.9,0.7-1.5c0-0.4-0.1-0.8-0.3-1c-0.2-0.3-0.5-0.6-0.8-0.8
			c-0.4-0.2-0.8-0.5-1.4-0.7c-0.6-0.2-1.2-0.5-1.9-0.7c-0.7-0.3-1.4-0.5-2.1-0.9c-0.7-0.3-1.3-0.7-1.8-1.1c-0.5-0.5-1-1-1.3-1.7
			c-0.3-0.7-0.5-1.4-0.5-2.4c0-0.7,0.1-1.4,0.3-2c0.2-0.7,0.5-1.3,1-1.8c0.4-0.5,1-1,1.7-1.4c0.7-0.4,1.5-0.7,2.5-0.8v-3.5h4.1v3.4
			c1.1,0.1,2.1,0.3,2.9,0.5c0.8,0.2,1.4,0.4,1.9,0.6l-1,3.9c-0.7-0.3-1.5-0.6-2.5-0.8c-0.9-0.2-1.9-0.3-3-0.3c-1,0-1.8,0.2-2.2,0.5
			c-0.5,0.3-0.7,0.8-0.7,1.4c0,0.3,0.1,0.6,0.2,0.9c0.1,0.2,0.4,0.5,0.7,0.7c0.3,0.2,0.7,0.4,1.1,0.6c0.4,0.2,1,0.4,1.6,0.6
			c0.9,0.3,1.8,0.7,2.6,1.1c0.8,0.4,1.5,0.9,2.1,1.4c0.6,0.5,1.1,1.1,1.4,1.9c0.3,0.7,0.5,1.5,0.5,2.5c0,0.6-0.1,1.3-0.3,1.9
			c-0.2,0.6-0.5,1.2-1,1.8c-0.5,0.5-1,1-1.8,1.4c-0.7,0.4-1.6,0.7-2.7,0.8v3.9H29V48.9z"></path></svg>